<svg width="416" height="392" viewBox="0 0 416 392" fill="none" xmlns="http://www.w3.org/2000/svg">
<g filter="url(#filter0_ii_369_865)">
<g clip-path="url(#clip0_369_865)">
<path d="M0 24C0 10.7452 10.7452 0 24 0H392C405.255 0 416 10.7452 416 24V368C416 381.255 405.255 392 392 392H24C10.7452 392 0 381.255 0 368V24Z" fill="#F6FFE7"/>
<g filter="url(#filter1_f_369_865)">
<path d="M-17.9409 -52.1011C-25.2997 -105.552 -53.7131 -131.203 -67 -137.346C-43.237 -222.592 274.881 -211.072 394.463 -216.832C514.044 -222.592 506.379 -78.5963 467.285 -52.1011C428.191 -25.606 369.933 14.7128 322.407 34.2962C274.881 53.8795 264.149 7.80099 213.557 -32.5177C162.965 -72.8365 65.613 41.2079 21.1531 108.022C-23.3067 174.836 -8.74227 14.7128 -17.9409 -52.1011Z" fill="#CCFF3F"/>
</g>
<g filter="url(#filter2_f_369_865)">
<path d="M166.627 727.263C116.006 601.208 52.3473 710.71 -65 461.148C71.5216 243.417 401.321 498.073 464.98 573.196C528.639 648.319 385.982 703.07 326.924 836.765C267.867 970.459 217.247 853.317 166.627 727.263Z" fill="#74F7B1"/>
</g>
<g filter="url(#filter3_f_369_865)">
<path d="M287.269 697.537C152.785 716.68 243.975 804.586 -26.3537 859.121C-205.305 674.672 120.569 415.012 208.691 371.076C296.814 327.14 316.014 478.732 431.796 567.931C547.578 657.13 421.752 678.395 287.269 697.537Z" fill="#00B4D8"/>
</g>
</g>
<path d="M24 0.5H392C404.979 0.5 415.5 11.0213 415.5 24V368C415.5 380.979 404.979 391.5 392 391.5H24C11.0213 391.5 0.5 380.979 0.5 368V24C0.5 11.0213 11.0213 0.5 24 0.5Z" stroke="white"/>
</g>
<defs>
<filter id="filter0_ii_369_865" x="0" y="-16" width="416" height="408" filterUnits="userSpaceOnUse" color-interpolation-filters="sRGB">
<feFlood flood-opacity="0" result="BackgroundImageFix"/>
<feBlend mode="normal" in="SourceGraphic" in2="BackgroundImageFix" result="shape"/>
<feColorMatrix in="SourceAlpha" type="matrix" values="0 0 0 0 0 0 0 0 0 0 0 0 0 0 0 0 0 0 127 0" result="hardAlpha"/>
<feMorphology radius="10" operator="erode" in="SourceAlpha" result="effect1_innerShadow_369_865"/>
<feOffset dy="-16"/>
<feGaussianBlur stdDeviation="17"/>
<feComposite in2="hardAlpha" operator="arithmetic" k2="-1" k3="1"/>
<feColorMatrix type="matrix" values="0 0 0 0 1 0 0 0 0 1 0 0 0 0 1 0 0 0 0.65 0"/>
<feBlend mode="normal" in2="shape" result="effect1_innerShadow_369_865"/>
<feColorMatrix in="SourceAlpha" type="matrix" values="0 0 0 0 0 0 0 0 0 0 0 0 0 0 0 0 0 0 127 0" result="hardAlpha"/>
<feOffset dy="-6"/>
<feGaussianBlur stdDeviation="7"/>
<feComposite in2="hardAlpha" operator="arithmetic" k2="-1" k3="1"/>
<feColorMatrix type="matrix" values="0 0 0 0 0 0 0 0 0 0 0 0 0 0 0 0 0 0 0.05 0"/>
<feBlend mode="normal" in2="effect1_innerShadow_369_865" result="effect2_innerShadow_369_865"/>
</filter>
<filter id="filter1_f_369_865" x="-267" y="-417" width="960" height="741" filterUnits="userSpaceOnUse" color-interpolation-filters="sRGB">
<feFlood flood-opacity="0" result="BackgroundImageFix"/>
<feBlend mode="normal" in="SourceGraphic" in2="BackgroundImageFix" result="shape"/>
<feGaussianBlur stdDeviation="100" result="effect1_foregroundBlur_369_865"/>
</filter>
<filter id="filter2_f_369_865" x="-265" y="175" width="946" height="921" filterUnits="userSpaceOnUse" color-interpolation-filters="sRGB">
<feFlood flood-opacity="0" result="BackgroundImageFix"/>
<feBlend mode="normal" in="SourceGraphic" in2="BackgroundImageFix" result="shape"/>
<feGaussianBlur stdDeviation="100" result="effect1_foregroundBlur_369_865"/>
</filter>
<filter id="filter3_f_369_865" x="-279.182" y="163.258" width="956.53" height="895.863" filterUnits="userSpaceOnUse" color-interpolation-filters="sRGB">
<feFlood flood-opacity="0" result="BackgroundImageFix"/>
<feBlend mode="normal" in="SourceGraphic" in2="BackgroundImageFix" result="shape"/>
<feGaussianBlur stdDeviation="100" result="effect1_foregroundBlur_369_865"/>
</filter>
<clipPath id="clip0_369_865">
<path d="M0 24C0 10.7452 10.7452 0 24 0H392C405.255 0 416 10.7452 416 24V368C416 381.255 405.255 392 392 392H24C10.7452 392 0 381.255 0 368V24Z" fill="white"/>
</clipPath>
</defs>
</svg>
